<svg width="57" height="45" viewBox="0 0 57 45" fill="none" xmlns="http://www.w3.org/2000/svg">
<path d="M17.4591 15.8663L17.0074 17.2967H17.0074L17.4591 15.8663ZM17.4173 15.3162L16.7274 13.9842H16.7274L17.4173 15.3162ZM21.7962 18.3773L23.2107 18.8765L23.5431 17.9348L22.8025 17.2649L21.7962 18.3773ZM25.163 26.9657L24.4634 28.2925L25.163 26.9657ZM25.1171 27.5155L24.6758 26.0819L25.1171 27.5155ZM19.6046 31.1748V32.6748H20.2913L20.74 32.155L19.6046 31.1748ZM2.00829 28.2038L0.509121 28.1539L0.509121 28.1539L2.00829 28.2038ZM10.8489 15.842L11.2902 17.2756H11.2902L10.8489 15.842ZM10.8949 15.2921L10.1952 16.619L10.1952 16.619L10.8949 15.2921ZM17.9109 14.436C18.5164 14.6272 18.7386 15.1553 18.7638 15.4951C18.7888 15.8327 18.6508 16.3665 18.1071 16.6481L16.7274 13.9842C15.9647 14.3792 15.7301 15.151 15.772 15.7167C15.8141 16.2847 16.1667 17.0312 17.0074 17.2967L17.9109 14.436ZM22.8025 17.2649C21.3929 15.9898 19.7353 15.0122 17.9109 14.436L17.0074 17.2967C18.3981 17.7359 19.682 18.4875 20.79 19.4897L22.8025 17.2649ZM20.3817 17.8781C20.0668 18.7705 19.8961 19.7292 19.8961 20.7246H22.8961C22.8961 20.074 23.0074 19.4526 23.2107 18.8765L20.3817 17.8781ZM19.8961 20.7246C19.8961 24.0111 21.7507 26.8621 24.4634 28.2925L25.8626 25.6388C24.0954 24.707 22.8961 22.8546 22.8961 20.7246H19.8961ZM24.4634 28.2925C23.9217 28.0069 23.7877 27.472 23.8152 27.1347C23.8428 26.7951 24.069 26.2687 24.6758 26.0819L25.5583 28.9492C26.4008 28.6898 26.759 27.946 26.8053 27.3784C26.8513 26.813 26.6224 26.0395 25.8626 25.6388L24.4634 28.2925ZM24.6758 26.0819C22.2543 26.8272 20.1239 28.2778 18.4692 30.1946L20.74 32.155C22.0534 30.6336 23.7139 29.5169 25.5583 28.9492L24.6758 26.0819ZM3 32.6748H19.6046V29.6748H3V32.6748ZM0.5 30.1748C0.5 31.5555 1.61929 32.6748 3 32.6748V29.6748C3.27614 29.6748 3.5 29.8986 3.5 30.1748H0.5ZM0.5 28.7024V30.1748H3.5V28.7024H0.5ZM0.5 28.212V28.7024H3.5V28.212H0.5ZM2.00415 26.7079C1.1736 26.7079 0.5 27.3811 0.5 28.212H3.5C3.5 29.0383 2.83011 29.7079 2.00415 29.7079V26.7079ZM0.509121 28.1539C0.53566 27.357 1.18804 26.7079 2.00415 26.7079V29.7079C2.82472 29.7079 3.48077 29.0552 3.50746 28.2537L0.509121 28.1539ZM10.4076 14.4083C4.77058 16.1434 0.725011 21.6726 0.509121 28.1539L3.50746 28.2538C3.68506 22.9218 6.9965 18.5971 11.2902 17.2756L10.4076 14.4083ZM10.1952 16.619C9.65355 16.3333 9.51953 15.7984 9.54702 15.4611C9.5747 15.1215 9.80083 14.5951 10.4076 14.4083L11.2902 17.2756C12.1327 17.0163 12.4908 16.2724 12.5371 15.7048C12.5832 15.1395 12.3543 14.3659 11.5945 13.9653L10.1952 16.619ZM5.62802 9.05104C5.62802 12.3376 7.48256 15.1886 10.1952 16.619L11.5945 13.9653C9.8273 13.0334 8.62802 11.1811 8.62802 9.05104H5.62802ZM14.1791 0.5C9.45645 0.5 5.62802 4.32843 5.62802 9.05104H8.62802C8.62802 5.98528 11.1133 3.5 14.1791 3.5V0.5ZM22.7301 9.05104C22.7301 4.32843 18.9017 0.5 14.1791 0.5V3.5C17.2448 3.5 19.7301 5.98528 19.7301 9.05104H22.7301ZM18.1071 16.6481C20.8502 15.2275 22.7301 12.36 22.7301 9.05104H19.7301C19.7301 11.1956 18.5143 13.0587 16.7274 13.9842L18.1071 16.6481Z" fill="url(#paint0_linear_4707_44348)"/>
<path d="M46.2294 15.8662L45.7777 17.2966L46.2294 15.8662ZM46.1875 15.3161L46.8774 16.648L46.1875 15.3161ZM54.9923 28.2041L56.4914 28.1548L56.4914 28.1542L54.9923 28.2041ZM55 28.5746H53.4999L53.5 28.5873L55 28.5746ZM55.0002 28.7274L56.4997 28.7664L56.4997 28.7662L55.0002 28.7274ZM55 28.7348L53.5009 28.684L53.5 28.7094V28.7348H55ZM37.1619 31.1748L36.0265 32.155L36.4752 32.6748H37.1619V31.1748ZM31.7273 27.5398L32.1791 26.1094L32.1791 26.1094L31.7273 27.5398ZM31.6855 26.9896L30.9956 25.6577L30.9956 25.6577L31.6855 26.9896ZM35.1236 18.4509L34.1077 17.3473L33.3887 18.0092L33.7036 18.9344L35.1236 18.4509ZM39.6192 15.8421L40.0605 17.2757L40.0605 17.2757L39.6192 15.8421ZM39.6651 15.2922L38.9655 16.6191L38.9655 16.6191L39.6651 15.2922ZM46.6811 14.4359C47.2866 14.6271 47.5089 15.1552 47.5341 15.495C47.5591 15.8325 47.4211 16.3664 46.8774 16.648L45.4976 13.9841C44.735 14.3792 44.5004 15.151 44.5423 15.7167C44.5844 16.2846 44.9371 17.0311 45.7777 17.2966L46.6811 14.4359ZM56.4914 28.1542C56.2768 21.7062 52.2722 16.2015 46.6811 14.4359L45.7777 17.2966C50.0387 18.6422 53.3165 22.9502 53.4931 28.254L56.4914 28.1542ZM54.9961 26.7079C55.8119 26.7079 56.4652 27.3567 56.4914 28.1548L53.4931 28.2534C53.5195 29.0556 54.1762 29.7079 54.9961 29.7079V26.7079ZM56.5 28.2117C56.5 27.3812 55.8267 26.7079 54.9961 26.7079V29.7079C54.1698 29.7079 53.5 29.038 53.5 28.2117H56.5ZM56.5 28.5746V28.2117H53.5V28.5746H56.5ZM56.5005 28.7024C56.5005 28.6555 56.5003 28.6086 56.4999 28.5618L53.5 28.5873C53.5004 28.6256 53.5005 28.664 53.5005 28.7024H56.5005ZM56.4997 28.7662C56.5003 28.7447 56.5005 28.7235 56.5005 28.7024H53.5005C53.5005 28.6981 53.5006 28.6935 53.5007 28.6886L56.4997 28.7662ZM56.4991 28.7857C56.4993 28.7792 56.4995 28.7728 56.4997 28.7664L53.5007 28.6883C53.5008 28.6869 53.5008 28.6855 53.5009 28.684L56.4991 28.7857ZM56.5 30.1748V28.7348H53.5V30.1748H56.5ZM54 32.6748C55.3807 32.6748 56.5 31.5555 56.5 30.1748H53.5C53.5 29.8986 53.7238 29.6748 54 29.6748V32.6748ZM37.1619 32.6748H54V29.6748H37.1619V32.6748ZM38.2974 30.1946C36.6628 28.3012 34.5641 26.8627 32.1791 26.1094L31.2756 28.9702C33.093 29.5441 34.7291 30.6522 36.0265 32.155L38.2974 30.1946ZM32.1791 26.1094C32.7846 26.3007 33.0068 26.8288 33.032 27.1686C33.057 27.5061 32.919 28.04 32.3753 28.3216L30.9956 25.6577C30.2329 26.0527 29.9983 26.8245 30.0402 27.3902C30.0823 27.9582 30.435 28.7047 31.2756 28.9702L32.1791 26.1094ZM32.3753 28.3216C35.1183 26.9009 36.9982 24.0335 36.9982 20.7246H33.9982C33.9982 22.8691 32.7825 24.7322 30.9956 25.6577L32.3753 28.3216ZM36.9982 20.7246C36.9982 19.7624 36.8387 18.8345 36.5436 17.9675L33.7036 18.9344C33.8942 19.4941 33.9982 20.0956 33.9982 20.7246H36.9982ZM39.1779 14.4085C37.2795 14.9928 35.5592 16.0111 34.1077 17.3473L36.1395 19.5545C37.2812 18.5035 38.6139 17.721 40.0605 17.2757L39.1779 14.4085ZM38.9655 16.6191C38.4238 16.3335 38.2898 15.7986 38.3173 15.4613C38.345 15.1217 38.5711 14.5952 39.1779 14.4085L40.0605 17.2757C40.903 17.0163 41.2611 16.2725 41.3074 15.7049C41.3534 15.1395 41.1245 14.366 40.3647 13.9654L38.9655 16.6191ZM34.3981 9.05104C34.3981 12.3377 36.2527 15.1887 38.9655 16.6191L40.3647 13.9654C38.5974 13.0335 37.3981 11.1811 37.3981 9.05104H34.3981ZM42.9491 0.5C38.2265 0.5 34.3981 4.32843 34.3981 9.05104H37.3981C37.3981 5.98528 39.8834 3.5 42.9491 3.5V0.5ZM51.5002 9.05104C51.5002 4.32843 47.6717 0.5 42.9491 0.5V3.5C46.0149 3.5 48.5002 5.98528 48.5002 9.05104H51.5002ZM46.8774 16.648C49.6204 15.2273 51.5002 12.3599 51.5002 9.05104H48.5002C48.5002 11.1956 47.2845 13.0586 45.4976 13.9841L46.8774 16.648Z" fill="url(#paint1_linear_4707_44348)"/>
<path d="M40.498 40.3966L38.9981 40.3806L38.998 40.3886V40.3966H40.498ZM40.4982 40.3757L41.9981 40.3917L41.9982 40.3817L41.9982 40.3716L40.4982 40.3757ZM40.498 40.2938H38.998L38.998 40.2979L40.498 40.2938ZM16.2766 39.8771L14.7774 39.8271L16.2766 39.8771ZM40.4899 39.8773L41.9891 39.8274L40.4899 39.8773ZM25.163 26.9655L24.4634 28.2923L25.163 26.9655ZM25.1171 27.5154L24.6758 26.0817L25.1171 27.5154ZM31.7273 27.5396L31.2756 28.97L31.7273 27.5396ZM33.9982 20.7244C33.9982 22.8689 32.7824 24.732 30.9956 25.6575L32.3753 28.3214C35.1183 26.9007 36.9982 24.0333 36.9982 20.7244H33.9982ZM28.4471 15.1733C31.5129 15.1733 33.9982 17.6586 33.9982 20.7244H36.9982C36.9982 16.0018 33.1697 12.1733 28.4471 12.1733V15.1733ZM22.8961 20.7244C22.8961 17.6586 25.3814 15.1733 28.4471 15.1733V12.1733C23.7245 12.1733 19.8961 16.0018 19.8961 20.7244H22.8961ZM25.8626 25.6387C24.0954 24.7068 22.8961 22.8544 22.8961 20.7244H19.8961C19.8961 24.011 21.7507 26.862 24.4634 28.2923L25.8626 25.6387ZM24.6758 26.0817C19.0388 27.8168 14.9933 33.3459 14.7774 39.8271L17.7757 39.927C17.9534 34.5951 21.2648 30.2706 25.5583 28.949L24.6758 26.0817ZM14.7681 39.8855V41.8481H17.7681V39.8855H14.7681ZM14.7681 41.8481C14.7681 43.2289 15.8874 44.3481 17.2681 44.3481V41.3481C17.5442 41.3481 17.7681 41.572 17.7681 41.8481H14.7681ZM17.2681 44.3481H39.498V41.3481H17.2681V44.3481ZM39.498 44.3481C40.8787 44.3481 41.998 43.2289 41.998 41.8481H38.998C38.998 41.572 39.2218 41.3481 39.498 41.3481V44.3481ZM41.998 41.8481V40.3966H38.998V41.8481H41.998ZM41.9979 40.4126L41.9981 40.3917L38.9983 40.3597L38.9981 40.3806L41.9979 40.4126ZM41.9982 40.3716L41.998 40.2897L38.998 40.2979L38.9982 40.3798L41.9982 40.3716ZM41.998 40.2938V39.8852H38.998V40.2938H41.998ZM41.9891 39.8274C41.7744 33.3796 37.77 27.875 32.179 26.1093L31.2756 28.97C35.5364 30.3156 38.8141 34.6235 38.9908 39.9272L41.9891 39.8274ZM14.7774 39.8271C14.804 39.0299 15.4567 38.3812 16.2723 38.3812V41.3812C17.0926 41.3812 17.749 40.7289 17.7757 39.927L14.7774 39.8271ZM41.998 39.8852C41.998 39.0546 41.3246 38.3812 40.494 38.3812V41.3812C39.6677 41.3812 38.998 40.7114 38.998 39.8852H41.998ZM40.494 38.3812C41.3098 38.3812 41.9625 39.0301 41.9891 39.8274L38.9908 39.9272C39.0175 40.7289 39.6737 41.3812 40.494 41.3812V38.3812ZM24.4634 28.2923C23.9217 28.0067 23.7877 27.4719 23.8152 27.1345C23.8428 26.7949 24.069 26.2685 24.6758 26.0817L25.5583 28.949C26.4008 28.6896 26.759 27.9458 26.8053 27.3782C26.8513 26.8128 26.6224 26.0393 25.8626 25.6387L24.4634 28.2923ZM16.2723 38.3812C15.4415 38.3812 14.7681 39.0547 14.7681 39.8855H17.7681C17.7681 40.7115 17.0984 41.3812 16.2723 41.3812V38.3812ZM30.9956 25.6575C30.2329 26.0525 29.9982 26.8243 30.0401 27.39C30.0822 27.958 30.4349 28.7045 31.2756 28.97L32.179 26.1093C32.7845 26.3005 33.0068 26.8286 33.032 27.1684C33.057 27.506 32.919 28.0398 32.3753 28.3214L30.9956 25.6575Z" fill="url(#paint2_linear_4707_44348)"/>
<defs>
<linearGradient id="paint0_linear_4707_44348" x1="20.8711" y1="2" x2="4.12935" y2="31.4889" gradientUnits="userSpaceOnUse">
<stop stop-color="#527984"/>
<stop offset="0.5" stop-color="#79C6AA"/>
<stop offset="1" stop-color="#C4DAB5"/>
</linearGradient>
<linearGradient id="paint1_linear_4707_44348" x1="50.5309" y1="2" x2="33.8459" y2="31.5832" gradientUnits="userSpaceOnUse">
<stop stop-color="#527984"/>
<stop offset="0.5" stop-color="#79C6AA"/>
<stop offset="1" stop-color="#C4DAB5"/>
</linearGradient>
<linearGradient id="paint2_linear_4707_44348" x1="35.8829" y1="13.6733" x2="19.4785" y2="43.7069" gradientUnits="userSpaceOnUse">
<stop stop-color="#527984"/>
<stop offset="0.5" stop-color="#79C6AA"/>
<stop offset="1" stop-color="#C4DAB5"/>
</linearGradient>
</defs>
</svg>
